name rise44.9368peak50.754fall52.0217.mot
datacolumns 19
datarows 30
range 5.66498500000000 5.71331500000000
endheader
time	ground_force1_vx	ground_force1_vy	ground_force1_vz	ground_force1_px	ground_force1_py	ground_force1_pz	ground_force2_vx	ground_force2_vy	ground_force2_vz	ground_force2_px	ground_force2_py	ground_force2_pz	ground_torque1_x	ground_torque1_y	ground_torque1_z	ground_torque2_x	ground_torque2_y	ground_torque2_z	
5.66498500000000	72.21020600000000	812.82850800000006	57.01087400000000	0.39639900000000	0.00000000000000	0.06676900000000	0.00000000000000	0.00000000000000	0.00000000000000	0.00000000000000	0.00000000000000	0.00000000000000	0.00000000000000	35.63227600000000	0.00000000000000	0.00000000000000	0.00000000000000	0.00000000000000	
5.66665000000000	71.57147500000001	814.92903300000000	57.20573600000000	0.39574100000000	0.00000000000000	0.06672900000000	0.00000000000000	0.00000000000000	0.00000000000000	0.00000000000000	0.00000000000000	0.00000000000000	0.00000000000000	35.76251800000000	0.00000000000000	0.00000000000000	0.00000000000000	0.00000000000000	
5.66832100000000	70.92482600000000	816.82067099999995	57.38911300000000	0.39509900000000	0.00000000000000	0.06668700000000	0.00000000000000	0.00000000000000	0.00000000000000	0.00000000000000	0.00000000000000	0.00000000000000	0.00000000000000	35.88577300000000	0.00000000000000	0.00000000000000	0.00000000000000	0.00000000000000	
5.66998200000000	70.27111300000000	818.50392299999999	57.56049100000000	0.39447100000000	0.00000000000000	0.06664500000000	0.00000000000000	0.00000000000000	0.00000000000000	0.00000000000000	0.00000000000000	0.00000000000000	0.00000000000000	36.00160900000000	0.00000000000000	0.00000000000000	0.00000000000000	0.00000000000000	
5.67164600000000	69.61114000000001	819.97960499999999	57.71934200000000	0.39385700000000	0.00000000000000	0.06660200000000	0.00000000000000	0.00000000000000	0.00000000000000	0.00000000000000	0.00000000000000	0.00000000000000	0.00000000000000	36.10957500000000	0.00000000000000	0.00000000000000	0.00000000000000	0.00000000000000	
5.67331400000000	68.94565799999999	821.24884699999996	57.86512600000000	0.39325600000000	0.00000000000000	0.06655800000000	0.00000000000000	0.00000000000000	0.00000000000000	0.00000000000000	0.00000000000000	0.00000000000000	0.00000000000000	36.20921200000000	0.00000000000000	0.00000000000000	0.00000000000000	0.00000000000000	
5.67498100000000	68.27537100000001	822.31309799999997	57.99730100000000	0.39266700000000	0.00000000000000	0.06651300000000	0.00000000000000	0.00000000000000	0.00000000000000	0.00000000000000	0.00000000000000	0.00000000000000	0.00000000000000	36.30005500000000	0.00000000000000	0.00000000000000	0.00000000000000	0.00000000000000	
5.67664700000000	67.60093200000000	823.17412400000001	58.11532700000000	0.39209000000000	0.00000000000000	0.06646700000000	0.00000000000000	0.00000000000000	0.00000000000000	0.00000000000000	0.00000000000000	0.00000000000000	0.00000000000000	36.38163400000000	0.00000000000000	0.00000000000000	0.00000000000000	0.00000000000000	
5.67831200000000	66.92294900000000	823.83401500000002	58.21866800000000	0.39152200000000	0.00000000000000	0.06642100000000	0.00000000000000	0.00000000000000	0.00000000000000	0.00000000000000	0.00000000000000	0.00000000000000	0.00000000000000	36.45348500000000	0.00000000000000	0.00000000000000	0.00000000000000	0.00000000000000	
5.67997900000000	66.24198199999999	824.29517699999997	58.30680500000000	0.39096400000000	0.00000000000000	0.06637300000000	0.00000000000000	0.00000000000000	0.00000000000000	0.00000000000000	0.00000000000000	0.00000000000000	0.00000000000000	36.51514500000000	0.00000000000000	0.00000000000000	0.00000000000000	0.00000000000000	
5.68165200000000	65.55854700000000	824.56033500000001	58.37923100000000	0.39041400000000	0.00000000000000	0.06632400000000	0.00000000000000	0.00000000000000	0.00000000000000	0.00000000000000	0.00000000000000	0.00000000000000	0.00000000000000	36.56616500000000	0.00000000000000	0.00000000000000	0.00000000000000	0.00000000000000	
5.68331100000000	64.87311800000001	824.63252699999998	58.43546600000000	0.38987000000000	0.00000000000000	0.06627500000000	0.00000000000000	0.00000000000000	0.00000000000000	0.00000000000000	0.00000000000000	0.00000000000000	0.00000000000000	36.60610800000000	0.00000000000000	0.00000000000000	0.00000000000000	0.00000000000000	
5.68498200000000	64.18612600000000	824.51510299999995	58.47505500000000	0.38933100000000	0.00000000000000	0.06622400000000	0.00000000000000	0.00000000000000	0.00000000000000	0.00000000000000	0.00000000000000	0.00000000000000	0.00000000000000	36.63455500000000	0.00000000000000	0.00000000000000	0.00000000000000	0.00000000000000	
5.68665000000000	63.49796700000000	824.21171600000002	58.49757700000000	0.38879600000000	0.00000000000000	0.06617300000000	0.00000000000000	0.00000000000000	0.00000000000000	0.00000000000000	0.00000000000000	0.00000000000000	0.00000000000000	36.65110700000000	0.00000000000000	0.00000000000000	0.00000000000000	0.00000000000000	
5.68831500000000	62.80899800000000	823.72631899999999	58.50264400000000	0.38826300000000	0.00000000000000	0.06612000000000	0.00000000000000	0.00000000000000	0.00000000000000	0.00000000000000	0.00000000000000	0.00000000000000	0.00000000000000	36.65539000000000	0.00000000000000	0.00000000000000	0.00000000000000	0.00000000000000	
5.68998200000000	62.11954400000000	823.06315600000005	58.48991200000000	0.38773000000000	0.00000000000000	0.06606700000000	0.00000000000000	0.00000000000000	0.00000000000000	0.00000000000000	0.00000000000000	0.00000000000000	0.00000000000000	36.64705800000000	0.00000000000000	0.00000000000000	0.00000000000000	0.00000000000000	
5.69166000000000	61.42989700000000	822.22675200000003	58.45908000000000	0.38719700000000	0.00000000000000	0.06601300000000	0.00000000000000	0.00000000000000	0.00000000000000	0.00000000000000	0.00000000000000	0.00000000000000	0.00000000000000	36.62579700000000	0.00000000000000	0.00000000000000	0.00000000000000	0.00000000000000	
5.69332000000000	60.74032000000000	821.22190799999998	58.40989300000000	0.38666100000000	0.00000000000000	0.06595800000000	0.00000000000000	0.00000000000000	0.00000000000000	0.00000000000000	0.00000000000000	0.00000000000000	0.00000000000000	36.59132300000000	0.00000000000000	0.00000000000000	0.00000000000000	0.00000000000000	
5.69498600000000	60.05105000000000	820.05368499999997	58.34214900000000	0.38612000000000	0.00000000000000	0.06590200000000	0.00000000000000	0.00000000000000	0.00000000000000	0.00000000000000	0.00000000000000	0.00000000000000	0.00000000000000	36.54339100000000	0.00000000000000	0.00000000000000	0.00000000000000	0.00000000000000	
5.69665200000000	59.36230100000000	818.72739400000000	58.25569900000000	0.38557400000000	0.00000000000000	0.06584500000000	0.00000000000000	0.00000000000000	0.00000000000000	0.00000000000000	0.00000000000000	0.00000000000000	0.00000000000000	36.48179400000000	0.00000000000000	0.00000000000000	0.00000000000000	0.00000000000000	
5.69831800000000	58.67426300000000	817.24858500000005	58.15044800000000	0.38501900000000	0.00000000000000	0.06578800000000	0.00000000000000	0.00000000000000	0.00000000000000	0.00000000000000	0.00000000000000	0.00000000000000	0.00000000000000	36.40636500000000	0.00000000000000	0.00000000000000	0.00000000000000	0.00000000000000	
5.69997800000000	57.98710800000000	815.62303199999997	58.02636100000000	0.38445500000000	0.00000000000000	0.06573000000000	0.00000000000000	0.00000000000000	0.00000000000000	0.00000000000000	0.00000000000000	0.00000000000000	0.00000000000000	36.31697900000000	0.00000000000000	0.00000000000000	0.00000000000000	0.00000000000000	
5.70164800000000	57.30099100000000	813.85671900000000	57.88345900000000	0.38387900000000	0.00000000000000	0.06567100000000	0.00000000000000	0.00000000000000	0.00000000000000	0.00000000000000	0.00000000000000	0.00000000000000	0.00000000000000	36.21355600000000	0.00000000000000	0.00000000000000	0.00000000000000	0.00000000000000	
5.70331500000000	56.61605300000000	811.95582600000000	57.72182500000000	0.38328900000000	0.00000000000000	0.06561200000000	0.00000000000000	0.00000000000000	0.00000000000000	0.00000000000000	0.00000000000000	0.00000000000000	0.00000000000000	36.09605900000000	0.00000000000000	0.00000000000000	0.00000000000000	0.00000000000000	
5.70498400000000	55.93242300000000	809.92670999999996	57.54160400000000	0.38268400000000	0.00000000000000	0.06555200000000	0.00000000000000	0.00000000000000	0.00000000000000	0.00000000000000	0.00000000000000	0.00000000000000	0.00000000000000	35.96449900000000	0.00000000000000	0.00000000000000	0.00000000000000	0.00000000000000	
5.70665200000000	55.25022000000000	807.77589300000000	57.34299800000000	0.38206200000000	0.00000000000000	0.06549200000000	0.00000000000000	0.00000000000000	0.00000000000000	0.00000000000000	0.00000000000000	0.00000000000000	0.00000000000000	35.81893400000000	0.00000000000000	0.00000000000000	0.00000000000000	0.00000000000000	
5.70831500000000	54.56955300000000	805.51004100000000	57.12627300000000	0.38142000000000	0.00000000000000	0.06543200000000	0.00000000000000	0.00000000000000	0.00000000000000	0.00000000000000	0.00000000000000	0.00000000000000	0.00000000000000	35.65946600000000	0.00000000000000	0.00000000000000	0.00000000000000	0.00000000000000	
5.70998000000000	53.89052900000000	803.13594999999998	56.89175300000000	0.38075800000000	0.00000000000000	0.06537100000000	0.00000000000000	0.00000000000000	0.00000000000000	0.00000000000000	0.00000000000000	0.00000000000000	0.00000000000000	35.48624700000000	0.00000000000000	0.00000000000000	0.00000000000000	0.00000000000000	
5.71165200000000	53.21324700000000	800.66052500000001	56.63982400000000	0.38007300000000	0.00000000000000	0.06531000000000	0.00000000000000	0.00000000000000	0.00000000000000	0.00000000000000	0.00000000000000	0.00000000000000	0.00000000000000	35.29947400000000	0.00000000000000	0.00000000000000	0.00000000000000	0.00000000000000	
5.71331500000000	52.53780700000000	798.09076400000004	56.37092500000000	0.37936200000000	0.00000000000000	0.06524800000000	0.00000000000000	0.00000000000000	0.00000000000000	0.00000000000000	0.00000000000000	0.00000000000000	0.00000000000000	35.09939100000000	0.00000000000000	0.00000000000000	0.00000000000000	0.00000000000000	
